<svg width="75" height="73" viewBox="0 0 75 73" fill="none" xmlns="http://www.w3.org/2000/svg">
<path d="M37.9534 46.56V45.9986C45.4663 40.6302 45.4375 31.3326 45.4231 23.7764V22.6394C45.4231 11.701 38.8313 5.18115 27.7922 5.18115H27.2308C16.6379 5.18115 10.8089 11.3844 10.8089 22.6394C10.8089 28.3245 10.8089 39.853 19.4732 45.9986V46.4448C9.42717 47.8697 0 51.986 0 58.549C0 67.6739 9.00978 72.1069 27.5331 72.1069C51.2377 72.1069 56.2176 64.7378 56.2176 58.549C56.2176 51.5254 44.6027 47.8409 37.9534 46.56Z" fill="white"/>
<path d="M72.3086 56.0881C70.8405 56.0881 69.6459 54.8935 69.6315 53.4254C69.6027 51.468 61.1255 46.0276 53.1232 45.0777C51.7703 44.9194 50.7628 43.768 50.7628 42.4151V36.8739C50.7628 36.0535 51.137 35.2907 51.7703 34.787C56.2896 31.1744 59.715 23.3017 59.715 16.4796C59.715 7.28267 53.4974 5.35406 48.2873 5.35406C46.8048 5.35406 45.6102 4.15947 45.6102 2.67703C45.6102 1.19459 46.8048 0 48.2873 0C58.6356 0 65.0691 6.31836 65.0691 16.4939C65.0691 24.4243 61.3702 33.2614 56.1168 38.1117V40.1698C63.8025 41.8106 75 47.1934 75 53.4398C75 54.9079 73.8054 56.0881 72.3373 56.1025C72.3229 56.0881 72.3229 56.0881 72.3086 56.0881Z" fill="white"/>
</svg>
