<svg width="75" height="75" viewBox="0 0 75 75" fill="none" xmlns="http://www.w3.org/2000/svg">
<path d="M19.7759 28.7116C22.2027 28.7116 24.1687 30.6777 24.1687 33.1045V75H17.5795V59.4723C17.5795 58.8894 17.3479 58.3304 16.9358 57.9183C16.5236 57.5061 15.9646 57.2746 15.3817 57.2746C14.7988 57.2746 14.2398 57.5061 13.8276 57.9183C13.4155 58.3304 13.1839 58.8894 13.1839 59.4723V75H8.79107C8.50241 75.0004 8.21651 74.9438 7.94971 74.8336C7.68292 74.7234 7.44047 74.5616 7.23623 74.3576C7.03199 74.1536 6.86996 73.9114 6.75941 73.6447C6.64887 73.3781 6.59196 73.0922 6.59196 72.8036V49.5857C6.59196 50.4599 6.24471 51.2982 5.62659 51.9163C5.00848 52.5344 4.17013 52.8817 3.29598 52.8817C2.42183 52.8817 1.58349 52.5344 0.965371 51.9163C0.347255 51.2982 0 50.4599 0 49.5857V37.5C0 35.1692 0.925917 32.9338 2.57406 31.2857C4.2222 29.6375 6.45757 28.7116 8.78839 28.7116H19.7759ZM66.2116 28.7116C67.3657 28.7116 68.5085 28.9389 69.5748 29.3806C70.641 29.8222 71.6099 30.4696 72.4259 31.2857C73.242 32.1017 73.8894 33.0706 74.331 34.1368C74.7727 35.2031 75 36.3459 75 37.5V49.5857C75 50.4595 74.6529 51.2975 74.035 51.9154C73.4172 52.5332 72.5792 52.8804 71.7054 52.8804C70.8316 52.8804 69.9936 52.5332 69.3757 51.9154C68.7578 51.2975 68.4107 50.4595 68.4107 49.5857V72.8036C68.4107 73.0922 68.3538 73.3781 68.2433 73.6447C68.1327 73.9114 67.9707 74.1536 67.7664 74.3576C67.5622 74.5616 67.3198 74.7234 67.053 74.8336C66.7862 74.9438 66.5003 75.0004 66.2116 75H61.8188V59.4723C61.8188 58.8894 61.5872 58.3304 61.175 57.9183C60.7629 57.5061 60.2039 57.2746 59.621 57.2746C59.0381 57.2746 58.4791 57.5061 58.0669 57.9183C57.6548 58.3304 57.4232 58.8894 57.4232 59.4723V75H50.8312V33.1071C50.8312 30.6777 52.7973 28.7116 55.2241 28.7116H66.2116ZM48.6321 17.7241C48.7098 17.7241 48.7821 17.7429 48.8571 17.7429C49.4329 20.4959 51.0413 22.9238 53.3518 24.5277C51.3946 24.956 49.6422 26.0395 48.3846 27.5991C47.127 29.1588 46.4394 31.101 46.4357 33.1045V75H39.6964V50.6839C39.6964 50.1014 39.465 49.5427 39.0531 49.1308C38.6412 48.7189 38.0825 48.4875 37.5 48.4875C36.9175 48.4875 36.3588 48.7189 35.9469 49.1308C35.535 49.5427 35.3036 50.1014 35.3036 50.6839V75H28.5643V33.1071C28.5643 28.9018 25.5964 25.3902 21.6482 24.5277C23.9587 22.9238 25.5671 20.4959 26.1429 17.7429C26.2179 17.7429 26.2902 17.7241 26.3679 17.7241H48.6321ZM15.3804 8.93571C17.1275 8.93784 18.8026 9.63266 20.0383 10.8679C21.274 12.1031 21.9695 13.7778 21.9723 15.525C21.9709 17.2726 21.2764 18.9484 20.0411 20.1847C18.8059 21.4209 17.1307 22.1168 15.383 22.1196C13.6345 22.1189 11.9576 21.4244 10.7207 20.1884C9.48377 18.9525 8.78784 17.2763 8.78572 15.5277C8.78784 13.78 9.48303 12.1046 10.7188 10.8688C11.9546 9.63303 13.63 8.93784 15.3777 8.93571H15.3804ZM59.6196 8.93571C61.3664 8.93855 63.0407 9.63368 64.2758 10.8688C65.511 12.1039 66.2061 13.7783 66.2089 15.525C66.2075 17.2726 65.513 18.9484 64.2777 20.1847C63.0425 21.4209 61.3673 22.1168 59.6196 22.1196C57.872 22.1175 56.1965 21.4223 54.9608 20.1866C53.725 18.9508 53.0298 17.2753 53.0277 15.5277C53.0298 13.7805 53.7246 12.1054 54.9598 10.8697C56.195 9.63405 57.8698 8.93855 59.617 8.93571H59.6196ZM37.5 0C41.1348 0 44.0893 3.10446 44.0893 6.73929C44.0864 8.486 43.3913 10.1604 42.1562 11.3955C40.9211 12.6306 39.2467 13.3257 37.5 13.3286C35.7533 13.3257 34.0789 12.6306 32.8438 11.3955C31.6087 10.1604 30.9135 8.486 30.9107 6.73929C30.9107 3.10446 33.8625 0 37.5 0Z" fill="white"/>
</svg>
