<svg width="75" height="63" viewBox="0 0 75 63" fill="none" xmlns="http://www.w3.org/2000/svg">
<path d="M36.0212 6.18232C44.345 -2.06077 57.8429 -2.06077 66.1685 6.18232C68.7108 8.68838 70.5708 11.8023 71.5722 15.2288C72.5736 18.6553 72.6833 22.2808 71.8907 25.7616C69.5883 24.6559 67.0602 24.1009 64.5064 24.1404C61.9525 24.1799 59.4428 24.8128 57.1757 25.9892L56.8326 26.1719L56.4895 25.9892C50.3155 22.7719 42.5158 23.7478 37.3263 28.9116C31.2472 34.9616 31.4196 44.3426 36.6711 51.2978C38.3159 53.4771 40.7814 56.1374 43.3364 58.646L42.4813 59.4926C38.9124 63.027 33.7143 62.827 29.561 59.4926C25.4077 56.1598 12.5443 44.5236 5.54108 35.6995C-1.46215 26.8737 -2.33798 14.3151 5.87383 6.18232C14.1994 -2.06077 27.6956 -2.06077 36.0212 6.18232Z" fill="white"/>
<path d="M55.5385 31.8047C57.6943 29.6554 60.6098 28.4491 63.6488 28.4491C66.6877 28.4491 69.6032 29.6554 71.7591 31.8047C76.1673 36.207 75.9257 43.0441 71.9618 47.7915L71.2953 48.5736C68.8514 51.387 65.226 55.0072 60.421 59.4379L59.0157 60.7242C57.0954 62.6423 54.2036 62.3875 52.0648 60.7242L51.6504 60.3951L51.072 59.9138C48.2331 57.5198 42.3384 52.0646 39.1415 47.8162C35.5003 42.9786 34.9026 36.2159 39.3214 31.8029C41.4771 29.6542 44.3923 28.4482 47.4308 28.4482C50.4693 28.4482 53.3845 29.6542 55.5402 31.8029L55.5385 31.8047Z" fill="white"/>
</svg>
