<?xml version="1.0" standalone="no"?><!DOCTYPE svg PUBLIC "-//W3C//DTD SVG 1.1//EN" "http://www.w3.org/Graphics/SVG/1.1/DTD/svg11.dtd"><svg class="icon" width="200px" height="200.00px" viewBox="0 0 1024 1024" version="1.1" xmlns="http://www.w3.org/2000/svg"><path d="M391.744 128H632.32a96 96 0 0 1 67.84 28.16l167.808 167.68A96 96 0 0 1 896 391.808V632.32a96 96 0 0 1-28.16 67.84l-167.68 167.808A96 96 0 0 1 632.192 896H391.68a96 96 0 0 1-67.84-28.16l-167.808-167.68A96 96 0 0 1 128 632.192V391.68c0-25.472 10.112-49.856 28.16-67.84l167.68-167.808A96 96 0 0 1 391.808 128z m90.88 530.176c0 31.488 16.576 49.472 46.08 49.472 29.248 0 45.824-17.728 45.824-49.472V374.08c0-34.304-21.952-56.512-54.848-56.512-18.816 0-38.784 6.464-60.736 20.48l-45.824 30.72c-16.64 10.368-25.024 22.784-25.024 36.544 0 18.56 13.44 32.064 32 32.064 9.344 0 17.216-2.816 31.808-12.096l29.568-19.968h1.088v252.8z" fill="#ffffff" /></svg>