<?xml version="1.0" standalone="no"?><!DOCTYPE svg PUBLIC "-//W3C//DTD SVG 1.1//EN" "http://www.w3.org/Graphics/SVG/1.1/DTD/svg11.dtd"><svg class="icon" width="200px" height="200.00px" viewBox="0 0 1024 1024" version="1.1" xmlns="http://www.w3.org/2000/svg"><path d="M922.581786 522.352237 491.894991 100.328969c-31.265802-30.426571-84.656603-29.743034-114.993834 1.271738l-66.163541 68.189368c-11.936507 12.306456-11.655697 31.914562 0.621978 43.884846 13.828424 13.548614 21.595158 31.668529 21.81441 51.030601 0.218252 19.359075-7.112977 37.602106-20.606029 51.464107-27.068448 27.661645-74.836261 28.282624-102.558465 1.214377-5.903797-5.78168-14.265928-8.142879-22.129996-8.859193-8.263797 0.123916-16.159644 3.514817-21.879965 9.445396l-65.979066 68.096231c-15.041602 15.260853-23.307597 35.709189-23.123922 57.40468 0.190471 21.752852 8.859193 42.144826 24.400856 57.372901l430.841689 422.082828c15.355189 14.951263 35.522716 23.1567 56.845259 23.1567 22.06544 0 42.732028-8.701301 58.147776-24.522774l66.102183-68.155591c11.937506-12.304458 11.657696-31.886781-0.586402-43.883847-13.862002-13.521832-21.600155-31.60717-21.820406-50.970242-0.217253-19.329295 7.118973-37.574325 20.638807-51.40175 27.097228-27.756981 74.83826-28.317401 102.466128-1.275735 5.903797 5.780681 14.884908 8.794637 22.126798 8.858194 8.265796-0.129112 16.162642-3.48104 21.909745-9.450393l66.011844-68.027677c15.075379-15.356189 23.341175-35.866083 23.123922-57.592153C946.857527 557.903733 938.156226 537.579313 922.581786 522.352237zM879.50739 593.863952l-46.928582 48.39179c-20.701364-12.46335-44.474047-19.117039-69.179496-19.117039-36.581398 0-70.829178 14.419623-96.375857 40.622058-25.112174 25.670595-38.752926 59.609984-38.322417 95.538625 0.27981 25.357208 7.520901 49.599172 20.823482 70.484012l-46.959362 48.453349c-7.055616 7.179532-19.640883 7.426565-27.006889 0.217253L144.808116 456.494089c-3.667713-3.604156-5.720322-8.42169-5.782679-13.553611-0.031778-5.064366 1.897713-9.816345 5.440511-13.425498l46.956364-48.48013c20.700365 12.462351 44.505825 19.111043 69.246851 19.111043 36.576401 0 70.762823-14.388844 96.343079-40.555503 25.144752-25.703373 38.725144-59.644761 38.322417-95.599983-0.313587-25.423563-7.555477-49.666526-20.889837-70.580347L421.43956 144.986691c6.992059-7.117974 19.670663-7.336226 27.036669-0.184475L879.133444 566.794705c3.699292 3.604156 5.7529 8.422689 5.814458 13.514837C884.974683 585.408685 883.049189 590.195439 879.50739 593.863952zM389.562772 534.140845c0 6.639898-2.554468 13.282794-7.635823 18.36315l-31.318366 32.158796c-10.196487 10.114143-26.698299 10.114143-36.866005 0-10.193489-10.140924-10.193489-26.561391 0-36.701317l31.319365-32.155599c10.195487-10.144922 26.671517-10.144922 36.865006 0C387.009104 520.863047 389.562772 527.503944 389.562772 534.140845L389.562772 534.140845zM590.824317 342.20058c0 6.640897-2.553469 13.282794-7.635823 18.36315l-31.317367 32.158796c-10.196487 10.115142-26.697499 10.115142-36.866005 0-10.193489-10.140924-10.193489-26.561391 0-36.701317l31.319365-32.155798c10.194488-10.144922 26.671517-10.144922 36.864006 0C588.269849 328.923782 590.824317 335.56368 590.824317 342.20058L590.824317 342.20058zM490.193545 438.60122c0 6.640897-2.554468 13.282794-7.635823 18.36315l-31.317367 32.158796c-10.196487 10.115142-26.698498 10.115142-36.867004 0-10.193489-10.139925-10.193489-26.561391 0-36.701317l31.319365-32.155798c10.194488-10.144922 26.671517-10.144922 36.865006 0C487.639077 425.323423 490.193545 431.96432 490.193545 438.60122L490.193545 438.60122z" fill="#ffffff" /></svg>